<mxfile host="app.diagrams.net" modified="2023-07-21T08:17:40.671Z" agent="Mozilla/5.0 (Macintosh; Intel Mac OS X 10_15_7) AppleWebKit/537.36 (KHTML, like Gecko) Chrome/114.0.0.0 Safari/537.36" etag="lHw5Eja2tnXxZASXvBlQ" version="21.6.3" type="device">
  <diagram name="Page-1" id="Koxbdwsrbq8hHsAHsKJV">
    <mxGraphModel dx="954" dy="623" grid="1" gridSize="10" guides="1" tooltips="1" connect="1" arrows="1" fold="1" page="1" pageScale="1" pageWidth="827" pageHeight="1169" math="0" shadow="0">
      <root>
        <mxCell id="0" />
        <mxCell id="1" parent="0" />
        <mxCell id="ud4S15w9lu3cNg81u0Vc-23" value="" style="shape=actor;whiteSpace=wrap;html=1;" parent="1" vertex="1">
          <mxGeometry x="10" y="300" width="40" height="60" as="geometry" />
        </mxCell>
        <mxCell id="ud4S15w9lu3cNg81u0Vc-24" value="Клиенты" style="text;html=1;align=center;verticalAlign=middle;resizable=0;points=[];autosize=1;strokeColor=none;fillColor=none;" parent="1" vertex="1">
          <mxGeometry x="20" y="368" width="70" height="30" as="geometry" />
        </mxCell>
        <mxCell id="ud4S15w9lu3cNg81u0Vc-25" value="" style="shape=actor;whiteSpace=wrap;html=1;" parent="1" vertex="1">
          <mxGeometry x="55" y="300" width="40" height="60" as="geometry" />
        </mxCell>
        <mxCell id="ud4S15w9lu3cNg81u0Vc-26" value="" style="endArrow=classic;html=1;rounded=0;" parent="1" edge="1">
          <mxGeometry width="50" height="50" relative="1" as="geometry">
            <mxPoint x="110" y="344.25" as="sourcePoint" />
            <mxPoint x="190" y="344.25" as="targetPoint" />
          </mxGeometry>
        </mxCell>
        <mxCell id="ud4S15w9lu3cNg81u0Vc-27" value="HTTP-запрос" style="text;html=1;align=center;verticalAlign=middle;resizable=0;points=[];autosize=1;strokeColor=none;fillColor=none;" parent="1" vertex="1">
          <mxGeometry x="100" y="314.75" width="100" height="30" as="geometry" />
        </mxCell>
        <mxCell id="ud4S15w9lu3cNg81u0Vc-28" value="API &lt;br&gt;Gateway" style="whiteSpace=wrap;html=1;aspect=fixed;" parent="1" vertex="1">
          <mxGeometry x="200" y="290" width="80" height="80" as="geometry" />
        </mxCell>
        <mxCell id="ud4S15w9lu3cNg81u0Vc-29" value="user" style="swimlane;" parent="1" vertex="1">
          <mxGeometry x="320" y="90" width="250" height="200" as="geometry" />
        </mxCell>
        <mxCell id="ud4S15w9lu3cNg81u0Vc-42" value="Регистрация" style="text;html=1;align=center;verticalAlign=middle;resizable=0;points=[];autosize=1;strokeColor=none;fillColor=none;" parent="ud4S15w9lu3cNg81u0Vc-29" vertex="1">
          <mxGeometry y="40" width="100" height="30" as="geometry" />
        </mxCell>
        <mxCell id="ud4S15w9lu3cNg81u0Vc-47" value="Авторизация" style="text;html=1;align=center;verticalAlign=middle;resizable=0;points=[];autosize=1;strokeColor=none;fillColor=none;" parent="ud4S15w9lu3cNg81u0Vc-29" vertex="1">
          <mxGeometry y="70" width="100" height="30" as="geometry" />
        </mxCell>
        <mxCell id="ud4S15w9lu3cNg81u0Vc-48" value="Регистрация" style="text;html=1;align=center;verticalAlign=middle;resizable=0;points=[];autosize=1;strokeColor=none;fillColor=none;" parent="ud4S15w9lu3cNg81u0Vc-29" vertex="1">
          <mxGeometry y="100" width="100" height="30" as="geometry" />
        </mxCell>
        <mxCell id="ud4S15w9lu3cNg81u0Vc-30" value="task" style="swimlane;" parent="1" vertex="1">
          <mxGeometry x="320" y="360" width="250" height="200" as="geometry" />
        </mxCell>
        <mxCell id="ud4S15w9lu3cNg81u0Vc-49" value="Создание, редактирование, удаление&amp;nbsp;" style="text;html=1;align=center;verticalAlign=middle;resizable=0;points=[];autosize=1;strokeColor=none;fillColor=none;" parent="ud4S15w9lu3cNg81u0Vc-30" vertex="1">
          <mxGeometry y="38" width="240" height="30" as="geometry" />
        </mxCell>
        <mxCell id="ud4S15w9lu3cNg81u0Vc-50" value="Просмотр деталей" style="text;html=1;align=center;verticalAlign=middle;resizable=0;points=[];autosize=1;strokeColor=none;fillColor=none;" parent="ud4S15w9lu3cNg81u0Vc-30" vertex="1">
          <mxGeometry y="68" width="130" height="30" as="geometry" />
        </mxCell>
        <mxCell id="ud4S15w9lu3cNg81u0Vc-51" value="Фильтрация" style="text;html=1;align=center;verticalAlign=middle;resizable=0;points=[];autosize=1;strokeColor=none;fillColor=none;" parent="ud4S15w9lu3cNg81u0Vc-30" vertex="1">
          <mxGeometry y="98" width="90" height="30" as="geometry" />
        </mxCell>
        <mxCell id="ud4S15w9lu3cNg81u0Vc-56" value="Категоризация" style="text;html=1;align=center;verticalAlign=middle;resizable=0;points=[];autosize=1;strokeColor=none;fillColor=none;" parent="ud4S15w9lu3cNg81u0Vc-30" vertex="1">
          <mxGeometry y="128" width="110" height="30" as="geometry" />
        </mxCell>
        <mxCell id="ud4S15w9lu3cNg81u0Vc-38" value="" style="shape=datastore;whiteSpace=wrap;html=1;" parent="1" vertex="1">
          <mxGeometry x="630" y="120" width="60" height="60" as="geometry" />
        </mxCell>
        <mxCell id="ud4S15w9lu3cNg81u0Vc-39" value="" style="endArrow=classic;html=1;rounded=0;" parent="1" edge="1">
          <mxGeometry width="50" height="50" relative="1" as="geometry">
            <mxPoint x="620" y="139.5" as="sourcePoint" />
            <mxPoint x="580" y="140" as="targetPoint" />
          </mxGeometry>
        </mxCell>
        <mxCell id="ud4S15w9lu3cNg81u0Vc-40" value="" style="endArrow=classic;html=1;rounded=0;" parent="1" edge="1">
          <mxGeometry width="50" height="50" relative="1" as="geometry">
            <mxPoint x="580" y="160" as="sourcePoint" />
            <mxPoint x="620" y="160" as="targetPoint" />
          </mxGeometry>
        </mxCell>
        <mxCell id="ud4S15w9lu3cNg81u0Vc-41" value="MongoDB" style="text;html=1;align=center;verticalAlign=middle;resizable=0;points=[];autosize=1;strokeColor=none;fillColor=none;" parent="1" vertex="1">
          <mxGeometry x="620" y="188" width="80" height="30" as="geometry" />
        </mxCell>
        <mxCell id="ud4S15w9lu3cNg81u0Vc-33" value="" style="shape=datastore;whiteSpace=wrap;html=1;" parent="1" vertex="1">
          <mxGeometry x="630" y="430" width="60" height="60" as="geometry" />
        </mxCell>
        <mxCell id="ud4S15w9lu3cNg81u0Vc-34" value="" style="endArrow=classic;html=1;rounded=0;" parent="1" edge="1">
          <mxGeometry width="50" height="50" relative="1" as="geometry">
            <mxPoint x="620" y="449.5" as="sourcePoint" />
            <mxPoint x="580" y="450" as="targetPoint" />
          </mxGeometry>
        </mxCell>
        <mxCell id="ud4S15w9lu3cNg81u0Vc-35" value="" style="endArrow=classic;html=1;rounded=0;" parent="1" edge="1">
          <mxGeometry width="50" height="50" relative="1" as="geometry">
            <mxPoint x="580" y="470" as="sourcePoint" />
            <mxPoint x="620" y="470" as="targetPoint" />
          </mxGeometry>
        </mxCell>
        <mxCell id="ud4S15w9lu3cNg81u0Vc-37" value="PostgreSQL" style="text;html=1;align=center;verticalAlign=middle;resizable=0;points=[];autosize=1;strokeColor=none;fillColor=none;" parent="1" vertex="1">
          <mxGeometry x="615" y="500" width="90" height="30" as="geometry" />
        </mxCell>
        <mxCell id="ud4S15w9lu3cNg81u0Vc-52" value="notification" style="swimlane;" parent="1" vertex="1">
          <mxGeometry x="320" y="630" width="250" height="200" as="geometry" />
        </mxCell>
        <mxCell id="ud4S15w9lu3cNg81u0Vc-53" value="Уведомления" style="text;html=1;align=center;verticalAlign=middle;resizable=0;points=[];autosize=1;strokeColor=none;fillColor=none;" parent="ud4S15w9lu3cNg81u0Vc-52" vertex="1">
          <mxGeometry y="38" width="100" height="30" as="geometry" />
        </mxCell>
        <mxCell id="ud4S15w9lu3cNg81u0Vc-60" value="" style="endArrow=none;html=1;rounded=0;" parent="1" edge="1">
          <mxGeometry width="50" height="50" relative="1" as="geometry">
            <mxPoint x="230" y="280" as="sourcePoint" />
            <mxPoint x="310" y="200" as="targetPoint" />
            <Array as="points">
              <mxPoint x="230" y="200" />
            </Array>
          </mxGeometry>
        </mxCell>
        <mxCell id="ud4S15w9lu3cNg81u0Vc-61" value="" style="endArrow=none;html=1;rounded=0;" parent="1" edge="1">
          <mxGeometry width="50" height="50" relative="1" as="geometry">
            <mxPoint x="230" y="380" as="sourcePoint" />
            <mxPoint x="310" y="480" as="targetPoint" />
            <Array as="points">
              <mxPoint x="230" y="480" />
            </Array>
          </mxGeometry>
        </mxCell>
        <mxCell id="ud4S15w9lu3cNg81u0Vc-62" value="" style="endArrow=none;html=1;rounded=0;" parent="1" edge="1">
          <mxGeometry width="50" height="50" relative="1" as="geometry">
            <mxPoint x="220" y="380" as="sourcePoint" />
            <mxPoint x="310" y="730" as="targetPoint" />
            <Array as="points">
              <mxPoint x="220" y="730" />
            </Array>
          </mxGeometry>
        </mxCell>
        <mxCell id="ud4S15w9lu3cNg81u0Vc-65" value="" style="endArrow=classic;html=1;rounded=0;" parent="1" edge="1">
          <mxGeometry width="50" height="50" relative="1" as="geometry">
            <mxPoint x="740" y="490" as="sourcePoint" />
            <mxPoint x="580" y="750" as="targetPoint" />
          </mxGeometry>
        </mxCell>
        <mxCell id="ud4S15w9lu3cNg81u0Vc-68" value="RabbitMQ" style="text;html=1;align=center;verticalAlign=middle;resizable=0;points=[];autosize=1;strokeColor=none;fillColor=none;" parent="1" vertex="1">
          <mxGeometry x="740" y="500" width="80" height="30" as="geometry" />
        </mxCell>
        <mxCell id="ud4S15w9lu3cNg81u0Vc-69" value="" style="rounded=0;whiteSpace=wrap;html=1;" parent="1" vertex="1">
          <mxGeometry x="750" y="430" width="60" height="60" as="geometry" />
        </mxCell>
        <mxCell id="jtPLqAi_c8ks6x4rexBD-1" value="" style="endArrow=classic;html=1;rounded=0;" edge="1" parent="1">
          <mxGeometry width="50" height="50" relative="1" as="geometry">
            <mxPoint x="580" y="230" as="sourcePoint" />
            <mxPoint x="740" y="440" as="targetPoint" />
          </mxGeometry>
        </mxCell>
      </root>
    </mxGraphModel>
  </diagram>
</mxfile>
